# xmcd
#
# Track frame offsets:
#	150
#	18756
#	37255
#	52578
#	70289
#	101614
#	128314
#	149614
#
# Disc length: 2247 seconds
#
# Revision: 1
# Processed by: cddbd v1.5.1PL0 Copyright (c) Steve Scherf et al.
# Submitted via: audiograbber 1.80
#
DISCID=6408c508
DTITLE=Champagne and Reefer Blues Band - We buy guitars
DYEAR=1900
DGENRE=
TTITLE0=Everytime I roll the dice
TTITLE1=Blues thing
TTITLE2=I thank you
TTITLE3=Fall so hard
TTITLE4=Blues man
TTITLE5=Help the poor
TTITLE6=Pride and joy
TTITLE7=Ooh la la
EXTD=
EXTT0=
EXTT1=
EXTT2=
EXTT3=
EXTT4=
EXTT5=
EXTT6=
EXTT7=
PLAYORDER=
